<svg xmlns="http://www.w3.org/2000/svg" viewBox="0 0 1037.78 252.36"><defs><style>.cls-1{fill:#fff;}</style></defs><g id="Layer_2" data-name="Layer 2"><g id="Layer_1-2" data-name="Layer 1"><path class="cls-1" d="M142.11,138.85c5.31,5.58,10.73,11.44,16.38,17.07,1,1,2.95,1.28,4.52,1.57,6.19,1.13,10,5.71,9.48,11.47a10.57,10.57,0,0,1-10.4,9.58c-5.74,0-9.82-4.2-10.58-10.46a9.35,9.35,0,0,0-2.28-5.17c-4.51-4.66-9.23-9.15-14.12-13.41a4.87,4.87,0,0,0-4.54-.32c-21.47,14-42.6,12.92-64.32-1.51-5.74,5.53-11.75,11.18-17.53,17.05-.85.86-.68,2.79-.84,4.24A10.42,10.42,0,0,1,27.25,170c-1-5.27,1.56-10.9,6.81-11.7,6.9-1.05,10.5-5.82,14.68-10.18,3-3.12,5.86-6.32,8.74-9.42C42.76,116.56,42.85,94.8,58,72.63,52.7,67,47.46,61.28,42,55.78c-1-1-3-1.13-4.54-1.28C31.15,53.88,27,49.72,27,43.89A10.83,10.83,0,0,1,37,33.35C42.42,33,46.77,37,47.94,42.91a10.61,10.61,0,0,0,2.48,5.2C55.11,52.83,60,57.39,65,61.72a4.92,4.92,0,0,0,4.57.4c20.76-12.86,41.2-12.29,61.47,1.05a10.19,10.19,0,0,0,1.53.56c5.69-5.4,11.66-10.91,17.41-16.66,1-1,1.31-3,1.6-4.53,1-5.67,5.91-9.71,11.26-9.17a10.78,10.78,0,0,1,9.66,10.39c.06,5.72-4,9.76-9.79,10.78a15.82,15.82,0,0,0-7.58,3.6A128.24,128.24,0,0,0,143.6,70.55c-.88,1-1.37,3.54-.74,4.52C156.34,96,156,116.7,142.52,137.4A7.65,7.65,0,0,0,142.11,138.85ZM84.67,101.48c6.21-10.56,12.17-20.68,18.55-31.54-12.81-.29-22.59,3.38-30.54,12.31,3.46,5.77,6.77,11.3,10.11,16.81C83.19,99.72,83.74,100.29,84.67,101.48ZM67.74,121.25C70.41,129.79,82.22,140,90,140.68a3.16,3.16,0,0,0,2.52-.89c3.56-5.91,7-11.93,10.77-18.54Zm61.31,5.33c6.26-9.42,8-18.85,5.52-29a3.78,3.78,0,0,0-2.52-2.4c-6.7-.2-13.4-.11-21.18-.11ZM96.48,141.84c11.2.68,20-2.56,27.44-9.37.82-.75,1.77-2.56,1.42-3.22-3.29-6.19-6.86-12.24-10.75-19Zm-.19-51.45h35.83c-5.16-9.73-12.34-15.89-22.21-18.8a3.58,3.58,0,0,0-3.17,1.18C103.25,78.36,100,84.1,96.29,90.39ZM69.73,85.87c-5.69,9.18-7.37,17.91-5.32,27.22.3,1.36,2,3.38,3.11,3.44,6.54.32,13.1.16,20.78.16Z" transform="translate(0)"/><path class="cls-1" d="M755.64,252.36c-10.95-1.81-21.66-4-32.47-5.21-6.38-.74-7.78-3.84-7.67-9.53.26-13.36.12-26.73,0-40.09,0-3.26-.37-6.52-.59-10.09-37.19,17.8-65.52,5.05-73.3-32.77a101.89,101.89,0,0,1-2-29.58c4.17-44.81,36.72-69.52,81.3-62.48,10.14,1.61,20.32,3.12,30.31,5.45,2.37.55,5.74,4.2,5.75,6.44.16,58.57-.06,117.15-.23,175.73C756.79,250.53,756.48,250.83,755.64,252.36ZM715.42,116.44c-.74-.17.74-3.94,0-4.11,0-3.77.65-3.06.05-6.72-.7-4.3-1.77-11.72-3.67-12-5.61-1-12.41-.46-17.39,2.11-3.89,2-7.78,7.75-8.17,12.15-1.31,14.87-2,29.94-.91,44.79.32,4.66,6.18,11.3,10.71,12.49,9.08,0,13.76-5.2,15.26-9.54C715.59,143.2,715.42,130.86,715.42,116.44Z" transform="translate(0)"/><path class="cls-1" d="M298.27,129.49c0,18-.31,36.51.15,55,.19,7.76-1.61,11.26-10.2,10.66-10.54-.74-21.18-.18-32.55-.18V17.3C284.28,18,313,13,341.13,21.41c23,6.9,35,24.27,35.42,48.55.42,24.93-11,43.56-33.72,50.83C329,125.21,314.21,126.5,298.27,129.49Zm0-30.94c4.73,0,8.07.2,11.39,0,14.62-1,22.71-11.64,21.44-27.91-1.31-16.82-11.22-26.68-25.91-24.92-2.52.3-6.52,4-6.61,6.22C298,66.87,298.28,81.87,298.28,98.55Z" transform="translate(0)"/><path class="cls-1" d="M857.72,64.08h40.65c5.41,40.75-7.91,83.14,14.15,122.67-9.25,3-18.42,6.32-27.85,8.63-2.32.56-6.46-1.56-8-3.72-3.39-4.59-5.65-10-9-16.26-12.52,16.07-29.09,22.38-48.8,20.72-17.31-1.47-30.43-11.49-31.13-28.58-1.41-34.15-.42-68.4-.42-103.31h40.47c0,5.93,0,11.66,0,17.38.11,23.33-.15,46.68.68,70,.17,4.55,4.17,12.25,7.16,12.64,4.55.6,12.15-2.67,14.19-6.55a65.91,65.91,0,0,0,7.59-26c1.11-18.47.35-37,.36-55.58Z" transform="translate(0)"/><path class="cls-1" d="M970.74,149.23c6.34,19.92,12,20.81,58.06,9.85l7.48,24.76c-21.37,16.6-67.9,18-89.12,3-10.65-7.53-17.66-18.09-19.2-30.55-1.75-14.12-2.75-28.9-.51-42.83,6.14-38.26,43.49-61,81.13-50.92,13.95,3.73,23.94,11.61,27.68,26.1,4.07,15.76-.06,29.23-11.93,40.18C1011.72,140.5,996,145.18,979.56,148,976.9,148.45,974.21,148.75,970.74,149.23Zm-3.63-28.08c13,.73,21.48-2.87,26.11-10,4.85-7.5,4.18-15.62-1.59-19.28s-14.25-1.1-17.9,6.92C970.59,105.65,969.32,113.38,967.11,121.15Z" transform="translate(0)"/><path class="cls-1" d="M478.22,95.25l-20.1-.92V65.82c.84-.49,1.4-1.08,2-1.13,18.49-1.55,18.33-1.57,22.37-20.65.58-2.75,3-6.1,5.42-7.25,4.26-2,9.2-2.58,13.9-3.56,5.32-1.1,10.7-2,17.4-3.2V64.2h30.92c-1.63,10.52-3.08,19.83-4.67,30.12H519.78c0,21.4-.41,41.83.47,62.19.12,2.83,6.3,7.05,10.16,7.69,5.87,1,12.16-.65,20-1.31l6.85,26.46c-21.42,7.65-42,9.92-62.71,1.44-12.91-5.31-16.21-16.9-16.3-29.6C478.11,139.6,478.22,118,478.22,95.25Z" transform="translate(0)"/><path class="cls-1" d="M72.07,57.18c-4.53-4.24-8.58-7.35-8.43-14.55C64,28.53,50.9,17.07,36.7,17.51S10.77,30.18,11,44.26c.27,14.53,12.29,26.7,26.81,25.8,7.1-.44,10,3.59,13.56,7.92-11.91,7.45-32,2.73-42.57-9.77C-3,54.24-2.94,32.92,8.94,19.5,21.5,5.3,42.48,2.25,58,12.36,72.74,22,79.25,42,72.07,57.18Z" transform="translate(0)"/><path class="cls-1" d="M50.77,133.53c-3.77,4.42-6.94,8.56-14.05,8.36C22.57,141.5,10.86,154.12,11,168.32a26.54,26.54,0,0,0,26.81,26.05c14.25-.11,26.66-12.05,25.84-26.22-.42-7.23,3.67-10.27,8-14.09,7.43,13.76,2,33.78-11.56,43.9a37.59,37.59,0,0,1-49.33-3.5c-13.12-13.12-14.46-34.4-3.11-49.38C17.6,132,37.92,126.48,50.77,133.53Z" transform="translate(0)"/><path class="cls-1" d="M147.89,78.2c3.86-5,7.24-8.54,14.39-8.15,14.19.77,25.92-11.46,26.23-25.88.3-14-11.6-26.28-25.76-26.65s-27.21,11.17-26.89,25.2C136,49.89,132,53,127.65,56.85c-7.26-12.17-1.93-31.86,11.26-42.52,13.83-11.17,34.78-10.41,48.29,1.75a37.6,37.6,0,0,1,6.11,48.68C183.4,79.59,163.56,85.67,147.89,78.2Z" transform="translate(0)"/><path class="cls-1" d="M127.88,154.13c4.32,3.85,8.36,6.94,8,14.15-.75,14.21,11.62,26,26,26.09a26.62,26.62,0,0,0,26.73-26.17c.24-14-11.7-26.28-25.84-26.51-7-.11-9.53-1.67-13.73-8.36,13.42-6.89,34-1,43.48,12.56,10.92,15.5,9,36.58-4.48,49.29a37.62,37.62,0,0,1-49.4,2.16C125.54,187,120.49,167,127.88,154.13Z" transform="translate(0)"/><path class="cls-1" d="M450.5,164.64c.55,4,.88,6.73,1.29,9.4,2.71,17.6,1.74,19.77-15.87,21-8.87.61-18.94-.26-26.66-4.1-6-3-12.89-11.47-13.1-17.73-1.23-36.17-.6-72.41-.6-109.13H436.3V84.42c0,21.91.25,43.82-.11,65.72C436,159.85,438,166.61,450.5,164.64Z" transform="translate(0)"/><path class="cls-1" d="M571.46,63.9h40.36c.19,3.88.49,7.5.5,11.11,0,25,.13,50,0,75-.07,9.37,1,17.14,14.2,14.18,1.22,7.54,2.72,14.18,3.13,20.89.13,2.14-2.45,6.24-4.1,6.41-11.68,1.17-23.65,3.17-35.13,1.73-11.08-1.39-18.47-10.46-18.68-21.68C571,136,571.46,100.49,571.46,63.9Z" transform="translate(0)"/><path class="cls-1" d="M438.75,23.2c.08,14.33-9.54,24-23.8,23.91-13.56-.09-22.65-9-22.81-22.45C392,10.34,401.47.31,415.46,0,429.08-.29,438.67,9.27,438.75,23.2Z" transform="translate(0)"/><path class="cls-1" d="M614.72,22.87C614.79,37.81,606,47,591.54,47.1c-14.08.12-23.09-9-22.95-23.18s9.84-24,23.92-23.9C606,.09,614.66,9,614.72,22.87Z" transform="translate(0)"/></g></g></svg>