<svg xmlns="http://www.w3.org/2000/svg" viewBox="0 0 422 421.07"><defs><style>.cls-1{fill:#4bd2e3;}.cls-2{fill:#fdfdfd;}</style></defs><g id="Layer_2" data-name="Layer 2"><g id="Layer_1-2" data-name="Layer 1"><path class="cls-1" d="M300.47,280c11.23,11.81,22.7,24.19,34.64,36.09,2.16,2.15,6.24,2.71,9.55,3.32,13.11,2.39,21.24,12.07,20.06,24.25a22.35,22.35,0,0,1-22,20.27c-12.14.05-20.77-8.88-22.37-22.12a19.94,19.94,0,0,0-4.82-10.93c-9.55-9.85-19.51-19.35-29.86-28.36-2-1.74-7.38-2.12-9.6-.67-45.41,29.52-90.08,27.32-136-3.19C128,310.36,115.23,322.3,103,334.73c-1.78,1.82-1.43,5.89-1.77,9-1.23,11.37-9.62,19.59-20.77,20.19A22.06,22.06,0,0,1,57.61,346c-2.13-11.13,3.3-23.05,14.4-24.74,14.6-2.23,22.2-12.29,31.05-21.53,6.29-6.58,12.39-13.35,18.47-19.91-31.11-46.9-30.92-92.91,1-139.79-11.13-11.83-22.21-24-33.82-35.62-2.06-2.07-6.29-2.39-9.59-2.71C65.87,100.37,57,91.56,57,79.23,57,67.73,66.69,57.62,78.29,57c11.4-.66,20.6,7.74,23.08,20.22.77,3.89,2.52,8.25,5.23,11,9.93,10,20.24,19.63,30.93,28.79,2.05,1.77,7.38,2.26,9.65.85,43.9-27.2,87.12-26,130,2.22a20.19,20.19,0,0,0,3.23,1.17c12-11.4,24.66-23.07,36.81-35.21,2.17-2.17,2.77-6.25,3.38-9.58,2.19-12,12.5-20.53,23.83-19.39s20.31,10.82,20.42,22c.12,12.1-8.41,20.63-20.72,22.79a33.43,33.43,0,0,0-16,7.62c-8.82,8-16.78,17.09-24.48,26.24-1.84,2.19-2.89,7.48-1.55,9.56,28.5,44.19,27.66,88-.71,131.79A14.86,14.86,0,0,0,300.47,280ZM179,201l39.22-66.69c-27.08-.62-47.77,7.15-64.57,26,7.32,12.19,14.31,23.88,21.37,35.54A64.31,64.31,0,0,0,179,201Zm-35.79,41.8c5.64,18.05,30.61,39.64,47,41.07,1.76.16,4.57-.59,5.34-1.86,7.52-12.52,14.71-25.23,22.76-39.21Zm129.64,11.26c13.22-19.91,17-39.84,11.65-61.37-.52-2.08-3.45-5-5.33-5.08-14.16-.43-28.33-.23-44.78-.23ZM204,286.34c23.68,1.44,42.23-5.41,58-19.81,1.74-1.59,3.75-5.42,3-6.81-7-13.09-14.5-25.87-22.72-40.22Zm-.38-108.77h75.74c-10.91-20.59-26.08-33.6-47-39.77-1.89-.56-5.68.84-6.71,2.5C218.3,152.12,211.41,164.25,203.61,177.57ZM147.44,168c-12,19.42-15.59,37.87-11.24,57.56.63,2.88,4.18,7.14,6.56,7.26,13.83.69,27.71.34,44,.34Z"/><path class="cls-1" d="M152.38,107.34c-9.58-9-18.14-15.55-17.81-30.76.65-29.82-26.94-54-57-53.12S22.78,50.24,23.34,80c.58,30.73,26,56.46,56.68,54.56,15-.93,21.11,7.58,28.69,16.75-25.19,15.74-67.67,5.75-90-20.66-25-29.55-24.91-74.63.21-103,26.56-30,70.92-36.47,103.64-15.09C153.8,33,167.57,75.15,152.38,107.34Z"/><path class="cls-1" d="M107.35,268.78c-8,9.34-14.68,18.09-29.71,17.67C47.73,285.62,23,312.3,23.35,342.34,23.74,373,49.15,397.66,80,397.42c30.14-.23,56.36-25.49,54.63-55.44-.89-15.28,7.77-21.72,17-29.8,15.71,29.09,4.3,71.43-24.45,92.82C95,429,51.15,425.83,22.91,397.6c-27.75-27.73-30.58-72.72-6.59-104.41C37.22,265.59,80.18,253.86,107.35,268.78Z"/><path class="cls-1" d="M312.71,151.77c8.14-10.54,15.31-18,30.42-17.22,30,1.62,54.8-24.23,55.46-54.73.63-29.52-24.54-55.57-54.46-56.35s-57.55,23.62-56.87,53.29c.35,15.16-8.08,21.82-17.37,29.88-15.34-25.72-4.07-67.36,23.83-89.9,29.23-23.62,73.53-22,102.09,3.69a79.52,79.52,0,0,1,12.93,102.93C387.79,154.72,345.84,167.57,312.71,151.77Z"/><path class="cls-1" d="M270.39,312.33c9.13,8.14,17.67,14.68,16.87,29.92-1.58,30,24.57,54.91,54.89,55.16a56.26,56.26,0,0,0,56.51-55.33c.51-29.67-24.73-55.57-54.63-56.05-14.73-.23-20.14-3.53-29-17.68,28.36-14.57,71.78-2,91.92,26.56,23.09,32.76,19,77.35-9.47,104.22A79.56,79.56,0,0,1,293,403.7C265.44,381.79,254.77,339.62,270.39,312.33Z"/><path class="cls-2" d="M263.75,270.89c-4.63-.76-9.16-1.68-13.74-2.21-2.69-.31-3.29-1.62-3.24-4,.11-5.65,0-11.3,0-17,0-1.37-.16-2.75-.25-4.26-15.73,7.53-27.71,2.13-31-13.87a43.14,43.14,0,0,1-.84-12.51c1.76-19,15.53-29.41,34.39-26.43,4.29.68,8.6,1.32,12.82,2.3a3.88,3.88,0,0,1,2.43,2.73c.07,24.78,0,49.56-.09,74.34C264.24,270.11,264.11,270.24,263.75,270.89Zm-17-57.5c-.31-.07.31-1.67,0-1.74,0-1.59.27-1.29,0-2.84-.3-1.82-.75-5-1.55-5.09a12.32,12.32,0,0,0-7.36.89,7.48,7.48,0,0,0-3.46,5.14A120,120,0,0,0,234,228.7c.13,2,2.61,4.78,4.53,5.28,3.84,0,5.82-2.2,6.45-4C246.81,224.71,246.74,219.49,246.74,213.39Z"/><path class="cls-2" d="M70.27,218.91c0,7.63-.13,15.45.07,23.26.08,3.29-.69,4.77-4.32,4.51-4.46-.31-9-.07-13.77-.07V171.45c12.1.31,24.27-1.83,36.15,1.74,9.71,2.92,14.81,10.27,15,20.54.17,10.55-4.65,18.43-14.27,21.5C83.28,217.1,77,217.65,70.27,218.91Zm0-13.08c2,0,3.41.08,4.81,0,6.19-.44,9.61-4.92,9.07-11.81-.55-7.11-4.74-11.28-11-10.54-1.06.13-2.76,1.68-2.79,2.63C70.16,192.42,70.28,198.77,70.28,205.83Z"/><path class="cls-2" d="M306.93,191.24h17.2c2.29,17.24-3.35,35.17,6,51.89-3.91,1.26-7.79,2.68-11.78,3.65a4.2,4.2,0,0,1-3.4-1.57,58.32,58.32,0,0,1-3.81-6.88c-5.29,6.8-12.3,9.47-20.64,8.77-7.33-.62-12.87-4.86-13.17-12.09-.6-14.45-.18-28.94-.18-43.7h17.12c0,2.51,0,4.93,0,7.35.05,9.87-.06,19.75.29,29.61.07,1.92,1.76,5.18,3,5.34,1.92.25,5.14-1.13,6-2.77a27.89,27.89,0,0,0,3.21-11c.47-7.81.15-15.67.15-23.51Z"/><path class="cls-2" d="M354.74,227.26c2.69,8.43,5.06,8.8,24.56,4.17,1.06,3.49,2.12,7,3.17,10.47-9,7-28.73,7.63-37.7,1.29a18.56,18.56,0,0,1-8.12-12.92c-.75-6-1.17-12.23-.22-18.12,2.6-16.19,18.4-25.79,34.32-21.54,5.9,1.58,10.13,4.91,11.71,11,1.72,6.67,0,12.37-5,17-5.33,4.92-12,6.9-18.94,8.09C357.35,226.93,356.21,227.06,354.74,227.26Zm-1.53-11.88c5.48.31,9.08-1.21,11-4.24s1.77-6.61-.67-8.16-6-.46-7.57,2.93C354.68,208.83,354.14,212.1,353.21,215.38Z"/><path class="cls-2" d="M146.4,204.43l-8.51-.39V192c.36-.21.59-.46.85-.48,7.82-.65,7.75-.66,9.46-8.74a4.89,4.89,0,0,1,2.3-3.06,27.2,27.2,0,0,1,5.87-1.51c2.26-.46,4.53-.83,7.37-1.35v14.45h13.07c-.69,4.45-1.3,8.39-2,12.75H164c0,9.05-.18,17.69.19,26.3.06,1.2,2.67,3,4.3,3.26,2.48.4,5.14-.28,8.47-.56l2.89,11.2c-9.06,3.23-17.78,4.19-26.52.6-5.46-2.24-6.86-7.14-6.9-12.52C146.35,223.19,146.4,214.05,146.4,204.43Z"/><path class="cls-2" d="M134.67,233.78c.23,1.71.37,2.85.54,4,1.15,7.44.74,8.36-6.71,8.87-3.75.26-8-.11-11.28-1.73-2.54-1.26-5.45-4.85-5.54-7.5-.52-15.3-.25-30.63-.25-46.17h17.23v8.62c0,9.27.11,18.53,0,27.8C128.55,231.75,129.36,234.62,134.67,233.78Z"/><path class="cls-2" d="M185.84,191.17h17.07c.08,1.64.21,3.17.21,4.69,0,10.59.06,21.17,0,31.75,0,4,.44,7.25,6,6,.51,3.19,1.15,6,1.32,8.83.06.91-1,2.65-1.73,2.72-5,.49-10,1.34-14.86.73a9.05,9.05,0,0,1-7.91-9.17C185.66,221.68,185.84,206.64,185.84,191.17Z"/><path class="cls-2" d="M129.7,174c0,6.06-4,10.15-10.07,10.11-5.74,0-9.58-3.82-9.65-9.49-.07-6.06,4-10.3,9.87-10.43C125.61,164,129.67,168.05,129.7,174Z"/><path class="cls-2" d="M204.14,173.81c0,6.32-3.68,10.2-9.81,10.25-6,.05-9.77-3.8-9.71-9.81s4.17-10.14,10.12-10.11C200.46,164.17,204.11,167.93,204.14,173.81Z"/></g></g></svg>